<?xml version="1.0" encoding="utf-8" standalone="no"?>
<!DOCTYPE svg PUBLIC "-//W3C//DTD SVG 1.1//EN"
  "http://www.w3.org/Graphics/SVG/1.1/DTD/svg11.dtd">
<svg xmlns:xlink="http://www.w3.org/1999/xlink" width="720pt" height="331.2pt" viewBox="0 0 720 331.2" xmlns="http://www.w3.org/2000/svg" version="1.1">
 <metadata>
  <rdf:RDF xmlns:dc="http://purl.org/dc/elements/1.1/" xmlns:cc="http://creativecommons.org/ns#" xmlns:rdf="http://www.w3.org/1999/02/22-rdf-syntax-ns#">
   <cc:Work>
    <dc:type rdf:resource="http://purl.org/dc/dcmitype/StillImage"/>
    <dc:format>image/svg+xml</dc:format>
    <dc:creator>
     <cc:Agent>
      <dc:title>Matplotlib v3.11.1, https://matplotlib.org/</dc:title>
     </cc:Agent>
    </dc:creator>
   </cc:Work>
  </rdf:RDF>
 </metadata>
 <defs>
  <style type="text/css">*{stroke-linejoin: round; stroke-linecap: butt}</style>
 </defs>
 <g id="figure_1">
  <g id="patch_1">
   <path d="M 0 331.2 
L 720 331.2 
L 720 0 
L 0 0 
z
" style="fill: #ffffff"/>
  </g>
  <g id="axes_1">
   <g id="patch_2">
    <path d="M 72 274.896 
L 705.6 274.896 
L 705.6 66.24 
L 72 66.24 
z
" style="fill: #ffffff"/>
   </g>
   <g id="patch_3">
    <path d="M 100.8 142.761512 
L 110.741117 142.761512 
L 110.741117 164.709063 
L 100.8 164.709063 
z
" clip-path="url(#pada8d12691)" style="fill: #718b9c"/>
   </g>
   <g id="patch_4">
    <path d="M 130.038579 142.761512 
L 139.979695 142.761512 
L 139.979695 134.574679 
L 130.038579 134.574679 
z
" clip-path="url(#pada8d12691)" style="fill: #718b9c"/>
   </g>
   <g id="patch_5">
    <path d="M 159.277157 142.761512 
L 169.218274 142.761512 
L 169.218274 118.112993 
L 159.277157 118.112993 
z
" clip-path="url(#pada8d12691)" style="fill: #718b9c"/>
   </g>
   <g id="patch_6">
    <path d="M 188.515736 142.761512 
L 198.456853 142.761512 
L 198.456853 249.916274 
L 188.515736 249.916274 
z
" clip-path="url(#pada8d12691)" style="fill: #718b9c"/>
   </g>
   <g id="patch_7">
    <path d="M 217.754315 142.761512 
L 227.695431 142.761512 
L 227.695431 129.930407 
L 217.754315 129.930407 
z
" clip-path="url(#pada8d12691)" style="fill: #718b9c"/>
   </g>
   <g id="patch_8">
    <path d="M 246.992893 142.761512 
L 256.93401 142.761512 
L 256.93401 75.724364 
L 246.992893 75.724364 
z
" clip-path="url(#pada8d12691)" style="fill: #718b9c"/>
   </g>
   <g id="patch_9">
    <path d="M 276.231472 142.761512 
L 286.172589 142.761512 
L 286.172589 155.442573 
L 276.231472 155.442573 
z
" clip-path="url(#pada8d12691)" style="fill: #718b9c"/>
   </g>
   <g id="patch_10">
    <path d="M 305.470051 142.761512 
L 315.411168 142.761512 
L 315.411168 133.991139 
L 305.470051 133.991139 
z
" clip-path="url(#pada8d12691)" style="fill: #718b9c"/>
   </g>
   <g id="patch_11">
    <path d="M 334.708629 142.761512 
L 344.649746 142.761512 
L 344.649746 124.976521 
L 334.708629 124.976521 
z
" clip-path="url(#pada8d12691)" style="fill: #718b9c"/>
   </g>
   <g id="patch_12">
    <path d="M 363.947208 142.761512 
L 373.888325 142.761512 
L 373.888325 170.971538 
L 363.947208 170.971538 
z
" clip-path="url(#pada8d12691)" style="fill: #718b9c"/>
   </g>
   <g id="patch_13">
    <path d="M 393.185787 142.761512 
L 403.126904 142.761512 
L 403.126904 139.546257 
L 393.185787 139.546257 
z
" clip-path="url(#pada8d12691)" style="fill: #718b9c"/>
   </g>
   <g id="patch_14">
    <path d="M 422.424365 142.761512 
L 432.365482 142.761512 
L 432.365482 115.936371 
L 422.424365 115.936371 
z
" clip-path="url(#pada8d12691)" style="fill: #718b9c"/>
   </g>
   <g id="patch_15">
    <path d="M 451.662944 142.761512 
L 461.604061 142.761512 
L 461.604061 147.940741 
L 451.662944 147.940741 
z
" clip-path="url(#pada8d12691)" style="fill: #718b9c"/>
   </g>
   <g id="patch_16">
    <path d="M 480.901523 142.761512 
L 490.84264 142.761512 
L 490.84264 157.814957 
L 480.901523 157.814957 
z
" clip-path="url(#pada8d12691)" style="fill: #718b9c"/>
   </g>
   <g id="patch_17">
    <path d="M 510.140102 142.761512 
L 520.081218 142.761512 
L 520.081218 114.100098 
L 510.140102 114.100098 
z
" clip-path="url(#pada8d12691)" style="fill: #718b9c"/>
   </g>
   <g id="patch_18">
    <path d="M 539.37868 142.761512 
L 549.319797 142.761512 
L 549.319797 139.166934 
L 539.37868 139.166934 
z
" clip-path="url(#pada8d12691)" style="fill: #718b9c"/>
   </g>
   <g id="patch_19">
    <path d="M 568.617259 142.761512 
L 578.558376 142.761512 
L 578.558376 128.846406 
L 568.617259 128.846406 
z
" clip-path="url(#pada8d12691)" style="fill: #718b9c"/>
   </g>
   <g id="patch_20">
    <path d="M 597.855838 142.761512 
L 607.796954 142.761512 
L 607.796954 170.699642 
L 597.855838 170.699642 
z
" clip-path="url(#pada8d12691)" style="fill: #718b9c"/>
   </g>
   <g id="patch_21">
    <path d="M 627.094416 142.761512 
L 637.035533 142.761512 
L 637.035533 151.842614 
L 627.094416 151.842614 
z
" clip-path="url(#pada8d12691)" style="fill: #718b9c"/>
   </g>
   <g id="patch_22">
    <path d="M 656.332995 142.761512 
L 666.274112 142.761512 
L 666.274112 130.986676 
L 656.332995 130.986676 
z
" clip-path="url(#pada8d12691)" style="fill: #718b9c"/>
   </g>
   <g id="patch_23">
    <path d="M 111.325888 142.761512 
L 121.267005 142.761512 
L 121.267005 144.220435 
L 111.325888 144.220435 
z
" clip-path="url(#pada8d12691)" style="fill: #168b82"/>
   </g>
   <g id="patch_24">
    <path d="M 140.564467 142.761512 
L 150.505584 142.761512 
L 150.505584 136.027886 
L 140.564467 136.027886 
z
" clip-path="url(#pada8d12691)" style="fill: #168b82"/>
   </g>
   <g id="patch_25">
    <path d="M 169.803046 142.761512 
L 179.744162 142.761512 
L 179.744162 105.300682 
L 169.803046 105.300682 
z
" clip-path="url(#pada8d12691)" style="fill: #168b82"/>
   </g>
   <g id="patch_26">
    <path d="M 199.041624 142.761512 
L 208.982741 142.761512 
L 208.982741 265.411636 
L 199.041624 265.411636 
z
" clip-path="url(#pada8d12691)" style="fill: #168b82"/>
   </g>
   <g id="patch_27">
    <path d="M 228.280203 142.761512 
L 238.22132 142.761512 
L 238.22132 130.151984 
L 228.280203 130.151984 
z
" clip-path="url(#pada8d12691)" style="fill: #168b82"/>
   </g>
   <g id="patch_28">
    <path d="M 257.518782 142.761512 
L 267.459898 142.761512 
L 267.459898 120.31901 
L 257.518782 120.31901 
z
" clip-path="url(#pada8d12691)" style="fill: #168b82"/>
   </g>
   <g id="patch_29">
    <path d="M 286.75736 142.761512 
L 296.698477 142.761512 
L 296.698477 147.044927 
L 286.75736 147.044927 
z
" clip-path="url(#pada8d12691)" style="fill: #168b82"/>
   </g>
   <g id="patch_30">
    <path d="M 315.995939 142.761512 
L 325.937056 142.761512 
L 325.937056 98.212088 
L 315.995939 98.212088 
z
" clip-path="url(#pada8d12691)" style="fill: #168b82"/>
   </g>
   <g id="patch_31">
    <path d="M 345.234518 142.761512 
L 355.175635 142.761512 
L 355.175635 157.539384 
L 345.234518 157.539384 
z
" clip-path="url(#pada8d12691)" style="fill: #168b82"/>
   </g>
   <g id="patch_32">
    <path d="M 374.473096 142.761512 
L 384.414213 142.761512 
L 384.414213 143.854883 
L 374.473096 143.854883 
z
" clip-path="url(#pada8d12691)" style="fill: #168b82"/>
   </g>
   <g id="patch_33">
    <path d="M 403.711675 142.761512 
L 413.652792 142.761512 
L 413.652792 130.308605 
L 403.711675 130.308605 
z
" clip-path="url(#pada8d12691)" style="fill: #168b82"/>
   </g>
   <g id="patch_34">
    <path d="M 432.950254 142.761512 
L 442.891371 142.761512 
L 442.891371 107.69967 
L 432.950254 107.69967 
z
" clip-path="url(#pada8d12691)" style="fill: #168b82"/>
   </g>
   <g id="patch_35">
    <path d="M 462.188832 142.761512 
L 472.129949 142.761512 
L 472.129949 166.988342 
L 462.188832 166.988342 
z
" clip-path="url(#pada8d12691)" style="fill: #168b82"/>
   </g>
   <g id="patch_36">
    <path d="M 491.427411 142.761512 
L 501.368528 142.761512 
L 501.368528 163.59479 
L 491.427411 163.59479 
z
" clip-path="url(#pada8d12691)" style="fill: #168b82"/>
   </g>
   <g id="patch_37">
    <path d="M 520.66599 142.761512 
L 530.607107 142.761512 
L 530.607107 111.941231 
L 520.66599 111.941231 
z
" clip-path="url(#pada8d12691)" style="fill: #168b82"/>
   </g>
   <g id="patch_38">
    <path d="M 549.904569 142.761512 
L 559.845685 142.761512 
L 559.845685 173.103621 
L 549.904569 173.103621 
z
" clip-path="url(#pada8d12691)" style="fill: #168b82"/>
   </g>
   <g id="patch_39">
    <path d="M 579.143147 142.761512 
L 589.084264 142.761512 
L 589.084264 129.295582 
L 579.143147 129.295582 
z
" clip-path="url(#pada8d12691)" style="fill: #168b82"/>
   </g>
   <g id="patch_40">
    <path d="M 608.381726 142.761512 
L 618.322843 142.761512 
L 618.322843 148.517657 
L 608.381726 148.517657 
z
" clip-path="url(#pada8d12691)" style="fill: #168b82"/>
   </g>
   <g id="patch_41">
    <path d="M 637.620305 142.761512 
L 647.561421 142.761512 
L 647.561421 148.414299 
L 637.620305 148.414299 
z
" clip-path="url(#pada8d12691)" style="fill: #168b82"/>
   </g>
   <g id="patch_42">
    <path d="M 666.858883 142.761512 
L 676.8 142.761512 
L 676.8 127.283535 
L 666.858883 127.283535 
z
" clip-path="url(#pada8d12691)" style="fill: #168b82"/>
   </g>
   <g id="matplotlib.axis_1">
    <g id="xtick_1">
     <g id="line2d_1">
      <defs>
       <path id="m5d3b04a4a6" d="M 0 0 
L 0 3.5 
" style="stroke: #000000; stroke-width: 0.8"/>
      </defs>
      <g>
       <use xlink:href="#m5d3b04a4a6" x="111.033503" y="274.896" style="stroke: #000000; stroke-width: 0.8"/>
      </g>
     </g>
     <g id="text_1">
      <text style="font-size: 9px; font-family: 'DejaVu Sans', sans-serif; text-anchor: middle" x="111.033503" y="288.733891" transform="rotate(-0 111.033503 288.733891)">A</text>
     </g>
    </g>
    <g id="xtick_2">
     <g id="line2d_2">
      <g>
       <use xlink:href="#m5d3b04a4a6" x="140.272081" y="274.896" style="stroke: #000000; stroke-width: 0.8"/>
      </g>
     </g>
     <g id="text_2">
      <text style="font-size: 9px; font-family: 'DejaVu Sans', sans-serif; text-anchor: middle" x="140.272081" y="288.733891" transform="rotate(-0 140.272081 288.733891)">C</text>
     </g>
    </g>
    <g id="xtick_3">
     <g id="line2d_3">
      <g>
       <use xlink:href="#m5d3b04a4a6" x="169.51066" y="274.896" style="stroke: #000000; stroke-width: 0.8"/>
      </g>
     </g>
     <g id="text_3">
      <text style="font-size: 9px; font-family: 'DejaVu Sans', sans-serif; text-anchor: middle" x="169.51066" y="288.733891" transform="rotate(-0 169.51066 288.733891)">D</text>
     </g>
    </g>
    <g id="xtick_4">
     <g id="line2d_4">
      <g>
       <use xlink:href="#m5d3b04a4a6" x="198.749239" y="274.896" style="stroke: #000000; stroke-width: 0.8"/>
      </g>
     </g>
     <g id="text_4">
      <text style="font-size: 9px; font-family: 'DejaVu Sans', sans-serif; text-anchor: middle" x="198.749239" y="288.733891" transform="rotate(-0 198.749239 288.733891)">E</text>
     </g>
    </g>
    <g id="xtick_5">
     <g id="line2d_5">
      <g>
       <use xlink:href="#m5d3b04a4a6" x="227.987817" y="274.896" style="stroke: #000000; stroke-width: 0.8"/>
      </g>
     </g>
     <g id="text_5">
      <text style="font-size: 9px; font-family: 'DejaVu Sans', sans-serif; text-anchor: middle" x="227.987817" y="288.733891" transform="rotate(-0 227.987817 288.733891)">F</text>
     </g>
    </g>
    <g id="xtick_6">
     <g id="line2d_6">
      <g>
       <use xlink:href="#m5d3b04a4a6" x="257.226396" y="274.896" style="stroke: #000000; stroke-width: 0.8"/>
      </g>
     </g>
     <g id="text_6">
      <text style="font-size: 9px; font-family: 'DejaVu Sans', sans-serif; text-anchor: middle" x="257.226396" y="288.733891" transform="rotate(-0 257.226396 288.733891)">G</text>
     </g>
    </g>
    <g id="xtick_7">
     <g id="line2d_7">
      <g>
       <use xlink:href="#m5d3b04a4a6" x="286.464975" y="274.896" style="stroke: #000000; stroke-width: 0.8"/>
      </g>
     </g>
     <g id="text_7">
      <text style="font-size: 9px; font-family: 'DejaVu Sans', sans-serif; text-anchor: middle" x="286.464975" y="288.733891" transform="rotate(-0 286.464975 288.733891)">H</text>
     </g>
    </g>
    <g id="xtick_8">
     <g id="line2d_8">
      <g>
       <use xlink:href="#m5d3b04a4a6" x="315.703553" y="274.896" style="stroke: #000000; stroke-width: 0.8"/>
      </g>
     </g>
     <g id="text_8">
      <text style="font-size: 9px; font-family: 'DejaVu Sans', sans-serif; text-anchor: middle" x="315.703553" y="288.733891" transform="rotate(-0 315.703553 288.733891)">I</text>
     </g>
    </g>
    <g id="xtick_9">
     <g id="line2d_9">
      <g>
       <use xlink:href="#m5d3b04a4a6" x="344.942132" y="274.896" style="stroke: #000000; stroke-width: 0.8"/>
      </g>
     </g>
     <g id="text_9">
      <text style="font-size: 9px; font-family: 'DejaVu Sans', sans-serif; text-anchor: middle" x="344.942132" y="288.733891" transform="rotate(-0 344.942132 288.733891)">K</text>
     </g>
    </g>
    <g id="xtick_10">
     <g id="line2d_10">
      <g>
       <use xlink:href="#m5d3b04a4a6" x="374.180711" y="274.896" style="stroke: #000000; stroke-width: 0.8"/>
      </g>
     </g>
     <g id="text_10">
      <text style="font-size: 9px; font-family: 'DejaVu Sans', sans-serif; text-anchor: middle" x="374.180711" y="288.733891" transform="rotate(-0 374.180711 288.733891)">L</text>
     </g>
    </g>
    <g id="xtick_11">
     <g id="line2d_11">
      <g>
       <use xlink:href="#m5d3b04a4a6" x="403.419289" y="274.896" style="stroke: #000000; stroke-width: 0.8"/>
      </g>
     </g>
     <g id="text_11">
      <text style="font-size: 9px; font-family: 'DejaVu Sans', sans-serif; text-anchor: middle" x="403.419289" y="288.733891" transform="rotate(-0 403.419289 288.733891)">M</text>
     </g>
    </g>
    <g id="xtick_12">
     <g id="line2d_12">
      <g>
       <use xlink:href="#m5d3b04a4a6" x="432.657868" y="274.896" style="stroke: #000000; stroke-width: 0.8"/>
      </g>
     </g>
     <g id="text_12">
      <text style="font-size: 9px; font-family: 'DejaVu Sans', sans-serif; text-anchor: middle" x="432.657868" y="288.733891" transform="rotate(-0 432.657868 288.733891)">N</text>
     </g>
    </g>
    <g id="xtick_13">
     <g id="line2d_13">
      <g>
       <use xlink:href="#m5d3b04a4a6" x="461.896447" y="274.896" style="stroke: #000000; stroke-width: 0.8"/>
      </g>
     </g>
     <g id="text_13">
      <text style="font-size: 9px; font-family: 'DejaVu Sans', sans-serif; text-anchor: middle" x="461.896447" y="288.733891" transform="rotate(-0 461.896447 288.733891)">P</text>
     </g>
    </g>
    <g id="xtick_14">
     <g id="line2d_14">
      <g>
       <use xlink:href="#m5d3b04a4a6" x="491.135025" y="274.896" style="stroke: #000000; stroke-width: 0.8"/>
      </g>
     </g>
     <g id="text_14">
      <text style="font-size: 9px; font-family: 'DejaVu Sans', sans-serif; text-anchor: middle" x="491.135025" y="288.733891" transform="rotate(-0 491.135025 288.733891)">Q</text>
     </g>
    </g>
    <g id="xtick_15">
     <g id="line2d_15">
      <g>
       <use xlink:href="#m5d3b04a4a6" x="520.373604" y="274.896" style="stroke: #000000; stroke-width: 0.8"/>
      </g>
     </g>
     <g id="text_15">
      <text style="font-size: 9px; font-family: 'DejaVu Sans', sans-serif; text-anchor: middle" x="520.373604" y="288.733891" transform="rotate(-0 520.373604 288.733891)">R</text>
     </g>
    </g>
    <g id="xtick_16">
     <g id="line2d_16">
      <g>
       <use xlink:href="#m5d3b04a4a6" x="549.612183" y="274.896" style="stroke: #000000; stroke-width: 0.8"/>
      </g>
     </g>
     <g id="text_16">
      <text style="font-size: 9px; font-family: 'DejaVu Sans', sans-serif; text-anchor: middle" x="549.612183" y="288.733891" transform="rotate(-0 549.612183 288.733891)">S</text>
     </g>
    </g>
    <g id="xtick_17">
     <g id="line2d_17">
      <g>
       <use xlink:href="#m5d3b04a4a6" x="578.850761" y="274.896" style="stroke: #000000; stroke-width: 0.8"/>
      </g>
     </g>
     <g id="text_17">
      <text style="font-size: 9px; font-family: 'DejaVu Sans', sans-serif; text-anchor: middle" x="578.850761" y="288.733891" transform="rotate(-0 578.850761 288.733891)">T</text>
     </g>
    </g>
    <g id="xtick_18">
     <g id="line2d_18">
      <g>
       <use xlink:href="#m5d3b04a4a6" x="608.08934" y="274.896" style="stroke: #000000; stroke-width: 0.8"/>
      </g>
     </g>
     <g id="text_18">
      <text style="font-size: 9px; font-family: 'DejaVu Sans', sans-serif; text-anchor: middle" x="608.08934" y="288.733891" transform="rotate(-0 608.08934 288.733891)">V</text>
     </g>
    </g>
    <g id="xtick_19">
     <g id="line2d_19">
      <g>
       <use xlink:href="#m5d3b04a4a6" x="637.327919" y="274.896" style="stroke: #000000; stroke-width: 0.8"/>
      </g>
     </g>
     <g id="text_19">
      <text style="font-size: 9px; font-family: 'DejaVu Sans', sans-serif; text-anchor: middle" x="637.327919" y="288.733891" transform="rotate(-0 637.327919 288.733891)">W</text>
     </g>
    </g>
    <g id="xtick_20">
     <g id="line2d_20">
      <g>
       <use xlink:href="#m5d3b04a4a6" x="666.566497" y="274.896" style="stroke: #000000; stroke-width: 0.8"/>
      </g>
     </g>
     <g id="text_20">
      <text style="font-size: 9px; font-family: 'DejaVu Sans', sans-serif; text-anchor: middle" x="666.566497" y="288.733891" transform="rotate(-0 666.566497 288.733891)">Y</text>
     </g>
    </g>
    <g id="text_21">
     <text style="font-size: 9px; font-family: 'DejaVu Sans', sans-serif; text-anchor: middle" x="388.8" y="301.734594" transform="rotate(-0 388.8 301.734594)">Amino acid (complete set of 20)</text>
    </g>
   </g>
   <g id="matplotlib.axis_2">
    <g id="ytick_1">
     <g id="line2d_21">
      <defs>
       <path id="m96bb18ecc9" d="M 0 0 
L -3.5 0 
" style="stroke: #000000; stroke-width: 0.8"/>
      </defs>
      <g>
       <use xlink:href="#m96bb18ecc9" x="72" y="242.850541" style="stroke: #000000; stroke-width: 0.8"/>
      </g>
     </g>
     <g id="text_22">
      <text style="font-size: 9px; font-family: 'DejaVu Sans', sans-serif; text-anchor: end" x="65" y="246.269487" transform="rotate(-0 65 246.269487)">−3</text>
     </g>
    </g>
    <g id="ytick_2">
     <g id="line2d_22">
      <g>
       <use xlink:href="#m96bb18ecc9" x="72" y="209.487532" style="stroke: #000000; stroke-width: 0.8"/>
      </g>
     </g>
     <g id="text_23">
      <text style="font-size: 9px; font-family: 'DejaVu Sans', sans-serif; text-anchor: end" x="65" y="212.906477" transform="rotate(-0 65 212.906477)">−2</text>
     </g>
    </g>
    <g id="ytick_3">
     <g id="line2d_23">
      <g>
       <use xlink:href="#m96bb18ecc9" x="72" y="176.124522" style="stroke: #000000; stroke-width: 0.8"/>
      </g>
     </g>
     <g id="text_24">
      <text style="font-size: 9px; font-family: 'DejaVu Sans', sans-serif; text-anchor: end" x="65" y="179.543467" transform="rotate(-0 65 179.543467)">−1</text>
     </g>
    </g>
    <g id="ytick_4">
     <g id="line2d_24">
      <g>
       <use xlink:href="#m96bb18ecc9" x="72" y="142.761512" style="stroke: #000000; stroke-width: 0.8"/>
      </g>
     </g>
     <g id="text_25">
      <text style="font-size: 9px; font-family: 'DejaVu Sans', sans-serif; text-anchor: end" x="65" y="146.180458" transform="rotate(-0 65 146.180458)">0</text>
     </g>
    </g>
    <g id="ytick_5">
     <g id="line2d_25">
      <g>
       <use xlink:href="#m96bb18ecc9" x="72" y="109.398503" style="stroke: #000000; stroke-width: 0.8"/>
      </g>
     </g>
     <g id="text_26">
      <text style="font-size: 9px; font-family: 'DejaVu Sans', sans-serif; text-anchor: end" x="65" y="112.817448" transform="rotate(-0 65 112.817448)">1</text>
     </g>
    </g>
    <g id="ytick_6">
     <g id="line2d_26">
      <g>
       <use xlink:href="#m96bb18ecc9" x="72" y="76.035493" style="stroke: #000000; stroke-width: 0.8"/>
      </g>
     </g>
     <g id="text_27">
      <text style="font-size: 9px; font-family: 'DejaVu Sans', sans-serif; text-anchor: end" x="65" y="79.454438" transform="rotate(-0 65 79.454438)">2</text>
     </g>
    </g>
    <g id="text_28">
     <text style="font-size: 9px; font-family: 'DejaVu Sans', sans-serif; text-anchor: middle" x="45.569922" y="170.568" transform="rotate(-90 45.569922 170.568)">Mean composition difference (percentage points)</text>
    </g>
   </g>
   <g id="line2d_27">
    <path d="M 72 142.761512 
L 705.6 142.761512 
" clip-path="url(#pada8d12691)" style="fill: none; stroke: #51616d; stroke-width: 0.7; stroke-linecap: square"/>
   </g>
   <g id="patch_43">
    <path d="M 72 274.896 
L 72 66.24 
" style="fill: none; stroke: #000000; stroke-width: 0.8; stroke-linejoin: miter; stroke-linecap: square"/>
   </g>
   <g id="patch_44">
    <path d="M 72 274.896 
L 705.6 274.896 
" style="fill: none; stroke: #000000; stroke-width: 0.8; stroke-linejoin: miter; stroke-linecap: square"/>
   </g>
   <g id="legend_1">
    <g id="patch_45">
     <path d="M 247.149141 39.447394 
L 265.149141 39.447394 
L 265.149141 33.147394 
L 247.149141 33.147394 
z
" style="fill: #718b9c"/>
    </g>
    <g id="text_29">
     <text style="font-size: 9px; font-family: 'DejaVu Sans', sans-serif; text-anchor: start" x="272.349141" y="39.447394" transform="rotate(-0 272.349141 39.447394)">Front - remaining 104</text>
    </g>
    <g id="patch_46">
     <path d="M 387.560391 39.447394 
L 405.560391 39.447394 
L 405.560391 33.147394 
L 387.560391 33.147394 
z
" style="fill: #168b82"/>
    </g>
    <g id="text_30">
     <text style="font-size: 9px; font-family: 'DejaVu Sans', sans-serif; text-anchor: start" x="412.760391" y="39.447394" transform="rotate(-0 412.760391 39.447394)">Front - length-matched 10</text>
    </g>
   </g>
  </g>
 </g>
 <defs>
  <clipPath id="pada8d12691">
   <rect x="72" y="66.24" width="633.6" height="208.656"/>
  </clipPath>
 </defs>
</svg>
